<?xml version="1.0" encoding="UTF-8" standalone="no"?>
<!-- Generator: Adobe Illustrator 11.0, SVG Export Plug-In . SVG Version: 6.0.0 Build 78)  -->

<svg
   ns3:viewOrigin="11.5 731"
   ns3:rulerOrigin="0 0"
   ns3:pageBounds="0 840 592 0"
   width="562"
   height="553"
   viewBox="0 0 562 553"
   overflow="visible"
   enable-background="new 0 0 562 553"
   xml:space="preserve"
   version="1.1"
   id="svg914"
   sodipodi:docname="EE logo watermark.svg"
   inkscape:version="1.1.1 (3bf5ae0d25, 2021-09-20)"
   xmlns:inkscape="http://www.inkscape.org/namespaces/inkscape"
   xmlns:sodipodi="http://sodipodi.sourceforge.net/DTD/sodipodi-0.dtd"
   xmlns="http://www.w3.org/2000/svg"
   xmlns:svg="http://www.w3.org/2000/svg"
   xmlns:ns3="http://ns.adobe.com/AdobeIllustrator/10.0/"><defs
     id="defs918" /><sodipodi:namedview
     id="namedview916"
     pagecolor="#ffffff"
     bordercolor="#999999"
     borderopacity="1"
     inkscape:pageshadow="0"
     inkscape:pageopacity="0"
     inkscape:pagecheckerboard="0"
     showgrid="false"
     inkscape:zoom="0.55171448"
     inkscape:cx="303.59906"
     inkscape:cy="365.22514"
     inkscape:window-width="1280"
     inkscape:window-height="960"
     inkscape:window-x="0"
     inkscape:window-y="32"
     inkscape:window-maximized="1"
     inkscape:current-layer="g1509" /><g
     id="Eén_path"
     display="none"
     inkscape:groupmode="layer"><path
       ns3:knockout="Off"
       display="inline"
       fill="none"
       stroke="#000000"
       stroke-miterlimit="10"
       d="m 2,87.5 c 47.259,0 85.5,38.241 85.5,85.5 0,-29.848 24.152,-54 54,-54 h 72 c 19.898,0 36,16.102 36,36 v 72 c 0,14.924 -12.076,27 -27,27 -19.898,0 -36,-16.102 -36,-36 0,32.335 -26.165,58.5 -58.5,58.5 32.335,0 58.5,26.165 58.5,58.5 0,-19.898 16.102,-36 36,-36 14.924,0 27,12.076 27,27 v 72 c 0,19.898 -16.102,36 -36,36 h -72 c -29.848,0 -54,-24.152 -54,-54 0,47.259 -38.241,85.5 -85.5,85.5 47.259,0 85.5,38.241 85.5,85.5 0,-29.848 24.152,-54 54,-54 h 90 -4.5 c 29.848,0 54,24.152 54,54 0,-29.848 24.152,-54 54,-54 h -4.5 90 c 29.848,0 54,24.152 54,54 0,-47.259 38.241,-85.5 85.5,-85.5 -47.259,0 -85.5,-38.241 -85.5,-85.5 0,29.848 -24.152,54 -54,54 h -72 c -19.898,0 -36,-16.102 -36,-36 v -72 c 0,-14.924 12.076,-27 27,-27 19.898,0 36,16.102 36,36 0,-32.335 26.165,-58.5 58.5,-58.5 -32.335,0 -58.5,-26.165 -58.5,-58.5 0,19.898 -16.102,36 -36,36 -14.924,0 -27,-12.076 -27,-27 v -72 c 0,-19.898 16.102,-36 36,-36 h 72 c 29.848,0 54,24.152 54,54 0,-47.259 38.241,-85.5 85.5,-85.5 -47.259,0 -85.5,-38.241 -85.5,-85.5 0,29.848 -24.152,54 -54,54 h -90 4.5 c -29.848,0 -54,-24.152 -54,-54 0,29.848 -24.152,54 -54,54 h 4.5 -90 C 111.652,56 87.5,31.848 87.5,2 87.5,49.259 49.259,87.5 2,87.5 Z"
       id="path907" /></g><g
     id="Dubbele_lijn"
     inkscape:groupmode="layer"
     style="display:none"
     inkscape:label="#Dubbele_lijn"><path
       fill="none"
       stroke="#000000"
       stroke-width="4"
       stroke-linejoin="round"
       stroke-miterlimit="10"
       d="m 227,56 c 29.848,0 54,-24.152 54,-54 0,29.848 24.152,54 54,54 h 85.5 c 29.848,0 54,-24.152 54,-54 0,47.259 38.241,85.5 85.5,85.5 -47.259,0 -85.5,38.241 -85.5,85.5 0,-29.848 -24.152,-54 -54,-54 h -72 c -19.898,0 -36,16.102 -36,36 v 72 c 0,14.924 12.076,27 27,27 19.898,0 36,-16.102 36,-36 0,32.335 26.165,58.5 58.5,58.5 -32.335,0 -58.5,26.165 -58.5,58.5 0,-19.898 -16.102,-36 -36,-36 -14.924,0 -27,12.076 -27,27 v 72 c 0,19.898 16.102,36 36,36 h 72 c 29.848,0 54,-24.152 54,-54 0,47.259 38.241,85.5 85.5,85.5 -47.259,0 -85.5,38.241 -85.5,85.5 0,-29.848 -24.152,-54 -54,-54 H 335 c -29.848,0 -54,24.152 -54,54 0,-29.848 -24.152,-54 -54,-54 h -85.5 c -29.848,0 -54,24.152 -54,54 0,-47.259 -38.241,-85.5 -85.5,-85.5 47.259,0 85.5,-38.241 85.5,-85.5 0,29.848 24.152,54 54,54 h 72 c 19.898,0 36,-16.102 36,-36 v -72 c 0,-14.924 -12.076,-27 -27,-27 -19.898,0 -36,16.102 -36,36 0,-32.335 -26.165,-58.5 -58.5,-58.5 32.335,0 58.5,-26.165 58.5,-58.5 0,19.898 16.102,36 36,36 14.924,0 27,-12.076 27,-27 v -72 c 0,-19.898 -16.102,-36 -36,-36 h -72 c -29.848,0 -54,24.152 -54,54 C 87.5,125.741 49.259,87.5 2,87.5 49.259,87.5 87.5,49.259 87.5,2 c 0,29.848 24.152,54 54,54 z"
       id="path902"
       style="stroke:#000000;stroke-opacity:1" /><path
       fill="none"
       stroke="#000000"
       stroke-width="2"
       stroke-linejoin="round"
       stroke-miterlimit="10"
       d="M 227,63 H 141.5 C 119.183,63 99.683,50.916 89.048,32.984 80.237,57.656 61.31,77.538 37.206,87.5 61.31,97.462 80.237,117.344 89.048,142.016 99.683,124.084 119.183,112 141.5,112 h 72 c 23.71,0 43,19.29 43,43 v 72 c 0,18.748 -15.252,34 -34,34 -14.023,0 -26.461,-6.778 -34.315,-17.197 -6.114,14.205 -17.133,25.779 -30.89,32.697 13.757,6.918 24.776,18.492 30.89,32.697 C 196.039,298.778 208.477,292 222.5,292 c 18.748,0 34,15.252 34,34 v 72 c 0,23.71 -19.29,43 -43,43 h -72 C 119.183,441 99.683,428.916 89.048,410.984 80.237,435.655 61.31,455.537 37.206,465.5 61.31,475.463 80.237,495.345 89.048,520.016 99.683,502.084 119.183,490 141.5,490 H 227 c 23.43,0 43.785,13.296 54,32.722 C 291.215,503.296 311.57,490 335,490 h 85.5 c 22.317,0 41.817,12.084 52.452,30.016 8.812,-24.671 27.737,-44.553 51.843,-54.516 C 500.69,455.537 481.764,435.655 472.952,410.984 462.317,428.916 442.817,441 420.5,441 h -72 c -23.71,0 -43,-19.29 -43,-43 v -72 c 0,-18.748 15.252,-34 34,-34 14.023,0 26.461,6.778 34.315,17.197 6.114,-14.205 17.133,-25.779 30.89,-32.697 -13.757,-6.918 -24.775,-18.492 -30.89,-32.697 C 365.961,254.222 353.523,261 339.5,261 c -18.748,0 -34,-15.252 -34,-34 v -72 c 0,-23.71 19.29,-43 43,-43 h 72 c 22.317,0 41.817,12.084 52.452,30.016 C 481.764,117.345 500.689,97.463 524.795,87.5 500.69,77.538 481.764,57.656 472.952,32.984 462.317,50.916 442.817,63 420.5,63 H 335 C 311.57,63 291.215,49.705 281,30.279 270.785,49.705 250.43,63 227,63 Z"
       id="path904"
       style="stroke:#000000;stroke-opacity:1" /></g><g
     id="g1509"
     inkscape:groupmode="layer"
     style="display:inline;opacity:0.15"
     inkscape:label="#Dubbele_lijn watermark"><path
       fill="none"
       stroke="#000000"
       stroke-width="4"
       stroke-linejoin="round"
       stroke-miterlimit="10"
       d="m 227,56 c 29.848,0 54,-24.152 54,-54 0,29.848 24.152,54 54,54 h 85.5 c 29.848,0 54,-24.152 54,-54 0,47.259 38.241,85.5 85.5,85.5 -47.259,0 -85.5,38.241 -85.5,85.5 0,-29.848 -24.152,-54 -54,-54 h -72 c -19.898,0 -36,16.102 -36,36 v 72 c 0,14.924 12.076,27 27,27 19.898,0 36,-16.102 36,-36 0,32.335 26.165,58.5 58.5,58.5 -32.335,0 -58.5,26.165 -58.5,58.5 0,-19.898 -16.102,-36 -36,-36 -14.924,0 -27,12.076 -27,27 v 72 c 0,19.898 16.102,36 36,36 h 72 c 29.848,0 54,-24.152 54,-54 0,47.259 38.241,85.5 85.5,85.5 -47.259,0 -85.5,38.241 -85.5,85.5 0,-29.848 -24.152,-54 -54,-54 H 335 c -29.848,0 -54,24.152 -54,54 0,-29.848 -24.152,-54 -54,-54 h -85.5 c -29.848,0 -54,24.152 -54,54 0,-47.259 -38.241,-85.5 -85.5,-85.5 47.259,0 85.5,-38.241 85.5,-85.5 0,29.848 24.152,54 54,54 h 72 c 19.898,0 36,-16.102 36,-36 v -72 c 0,-14.924 -12.076,-27 -27,-27 -19.898,0 -36,16.102 -36,36 0,-32.335 -26.165,-58.5 -58.5,-58.5 32.335,0 58.5,-26.165 58.5,-58.5 0,19.898 16.102,36 36,36 14.924,0 27,-12.076 27,-27 v -72 c 0,-19.898 -16.102,-36 -36,-36 h -72 c -29.848,0 -54,24.152 -54,54 C 87.5,125.741 49.259,87.5 2,87.5 49.259,87.5 87.5,49.259 87.5,2 c 0,29.848 24.152,54 54,54 z"
       id="path1505"
       style="stroke:#000000;stroke-opacity:1" /><path
       fill="none"
       stroke="#000000"
       stroke-width="2"
       stroke-linejoin="round"
       stroke-miterlimit="10"
       d="M 227,63 H 141.5 C 119.183,63 99.683,50.916 89.048,32.984 80.237,57.656 61.31,77.538 37.206,87.5 61.31,97.462 80.237,117.344 89.048,142.016 99.683,124.084 119.183,112 141.5,112 h 72 c 23.71,0 43,19.29 43,43 v 72 c 0,18.748 -15.252,34 -34,34 -14.023,0 -26.461,-6.778 -34.315,-17.197 -6.114,14.205 -17.133,25.779 -30.89,32.697 13.757,6.918 24.776,18.492 30.89,32.697 C 196.039,298.778 208.477,292 222.5,292 c 18.748,0 34,15.252 34,34 v 72 c 0,23.71 -19.29,43 -43,43 h -72 C 119.183,441 99.683,428.916 89.048,410.984 80.237,435.655 61.31,455.537 37.206,465.5 61.31,475.463 80.237,495.345 89.048,520.016 99.683,502.084 119.183,490 141.5,490 H 227 c 23.43,0 43.785,13.296 54,32.722 C 291.215,503.296 311.57,490 335,490 h 85.5 c 22.317,0 41.817,12.084 52.452,30.016 8.812,-24.671 27.737,-44.553 51.843,-54.516 C 500.69,455.537 481.764,435.655 472.952,410.984 462.317,428.916 442.817,441 420.5,441 h -72 c -23.71,0 -43,-19.29 -43,-43 v -72 c 0,-18.748 15.252,-34 34,-34 14.023,0 26.461,6.778 34.315,17.197 6.114,-14.205 17.133,-25.779 30.89,-32.697 -13.757,-6.918 -24.775,-18.492 -30.89,-32.697 C 365.961,254.222 353.523,261 339.5,261 c -18.748,0 -34,-15.252 -34,-34 v -72 c 0,-23.71 19.29,-43 43,-43 h 72 c 22.317,0 41.817,12.084 52.452,30.016 C 481.764,117.345 500.689,97.463 524.795,87.5 500.69,77.538 481.764,57.656 472.952,32.984 462.317,50.916 442.817,63 420.5,63 H 335 C 311.57,63 291.215,49.705 281,30.279 270.785,49.705 250.43,63 227,63 Z"
       id="path1507"
       style="stroke:#000000;stroke-opacity:1" /></g><g
     id="Losse_paths"
     display="none"
     inkscape:groupmode="layer"><path
       display="inline"
       fill="none"
       stroke="#000000"
       stroke-miterlimit="10"
       d="m 227,56 c 29.848,0 54,-24.152 54,-54 0,29.848 24.152,54 54,54 h 85.5 c 29.848,0 54,-24.152 54,-54 0,47.259 38.241,85.5 85.5,85.5 -47.259,0 -85.5,38.241 -85.5,85.5 0,-29.848 -24.152,-54 -54,-54 h -72 c -19.898,0 -36,16.102 -36,36 v 72 c 0,14.924 12.076,27 27,27 19.898,0 36,-16.102 36,-36 0,32.335 26.165,58.5 58.5,58.5 -32.335,0 -58.5,26.165 -58.5,58.5 0,-19.898 -16.102,-36 -36,-36 -14.924,0 -27,12.076 -27,27 v 72 c 0,19.898 16.102,36 36,36 h 72 c 29.848,0 54,-24.152 54,-54 0,47.259 38.241,85.5 85.5,85.5 -47.259,0 -85.5,38.241 -85.5,85.5 0,-29.848 -24.152,-54 -54,-54 H 335 c -29.848,0 -54,24.152 -54,54 0,-29.848 -24.152,-54 -54,-54 h -85.5 c -29.848,0 -54,24.152 -54,54 0,-47.259 -38.241,-85.5 -85.5,-85.5 47.259,0 85.5,-38.241 85.5,-85.5 0,29.848 24.152,54 54,54 h 72 c 19.898,0 36,-16.102 36,-36 v -72 c 0,-14.924 -12.076,-27 -27,-27 -19.898,0 -36,16.102 -36,36 0,-32.335 -26.165,-58.5 -58.5,-58.5 32.335,0 58.5,-26.165 58.5,-58.5 0,19.898 16.102,36 36,36 14.924,0 27,-12.076 27,-27 v -72 c 0,-19.898 -16.102,-36 -36,-36 h -72 c -29.848,0 -54,24.152 -54,54 C 87.5,125.741 49.259,87.5 2,87.5 49.259,87.5 87.5,49.259 87.5,2 c 0,29.848 24.152,54 54,54 z"
       id="path899" /></g></svg>
